<?xml version="1.0" encoding="iso-8859-1"?>
<!-- Uploaded to: SVG Repo, www.svgrepo.com, Generator: SVG Repo Mixer Tools -->
<svg fill="#000000" height="800px" width="800px" version="1.1" id="Capa_1" xmlns="http://www.w3.org/2000/svg" xmlns:xlink="http://www.w3.org/1999/xlink" 
	 viewBox="0 0 60 60" xml:space="preserve">
<g>
	<path d="M57,45.5v-4h1v-5c0-0.105,0-0.214-3.013-19.157L54.854,16.5H53v-3h1.339c0.916,0,1.661-0.745,1.661-1.661V4.161
		C56,3.245,55.255,2.5,54.339,2.5H41.661C40.745,2.5,40,3.245,40,4.161v7.678c0,0.916,0.745,1.661,1.661,1.661H43v3h-2v4h-4v3h-4v-1
		c1.103,0,2-0.897,2-2v-2c0-2.757-2.243-5-5-5s-5,2.243-5,5v2c0,1.103,0.897,2,2,2v1h-4v-3h-4v-4h-2v-3h1.339
		c0.916,0,1.661-0.745,1.661-1.661V4.161C20,3.245,19.255,2.5,18.339,2.5H5.661C4.745,2.5,4,3.245,4,4.161v7.678
		C4,12.755,4.745,13.5,5.661,13.5H7v3H5.146l-0.134,0.843C2,36.286,2,36.395,2,36.5v5h1v4H0v12h23v-12h-3v-4h1h2v1
		c0,0.552,0.447,1,1,1s1-0.448,1-1v-1h2v2.392c0,0.887,0.721,1.608,1.607,1.608h2.785c0.887,0,1.607-0.721,1.607-1.608V41.5h2v1
		c0,0.552,0.447,1,1,1s1-0.448,1-1v-1h2h1v4h-3v12h23v-12H57z M43,4.5v1c0,0.552,0.447,1,1,1s1-0.448,1-1v-1h2v1
		c0,0.552,0.447,1,1,1s1-0.448,1-1v-1h2v1c0,0.552,0.447,1,1,1s1-0.448,1-1v-1h1v3H42v-3H43z M42,11.5v-2h12v2h-1H43H42z M45,13.5h6
		v3h-6V13.5z M39,22.5h4v-4h10h0.146c0.178,1.121,0.398,2.504,0.635,4H47v9h8.208c0.42,2.662,0.74,4.696,0.792,5.064V39.5H41v-2h2
		v-7h-4v-1h2v-6h-2V22.5z M54.883,29.5H49v-5h5.093L54.883,29.5z M27,20.5v-2c0-1.654,1.346-3,3-3s3,1.346,3,3v2
		c-1.103,0-2,0.897-2,2v1h-2v-1C29,21.397,28.103,20.5,27,20.5z M27,25.5h6h4h2v2h-2h-4h-6h-4h-2v-2h2H27z M31,35.5h-2v-6h2V35.5z
		 M7,4.5v1c0,0.552,0.447,1,1,1s1-0.448,1-1v-1h2v1c0,0.552,0.447,1,1,1s1-0.448,1-1v-1h2v1c0,0.552,0.447,1,1,1s1-0.448,1-1v-1h1v3
		H6v-3H7z M6,11.5v-2h12v2h-1H7H6z M9,13.5h6v3H9V13.5z M7,18.5h10v4h4v1h-2v6h2v1h-4v7h2v2H4v-2.936
		c0.053-0.368,0.372-2.402,0.792-5.064H13v-9H6.218c0.237-1.496,0.457-2.879,0.635-4H7z M5.907,24.5H11v5H5.117L5.907,24.5z
		 M21,47.5v8H2v-8h1h17H21z M5,45.5v-4h13v4H5z M19,35.5v-3h4v-3h4v6h-6H19z M31,43.5h-2v-2h2V43.5z M39,39.5h-6h-6h-6v-2h6h6h6
		V39.5z M33,35.5v-6h4v3h4v3h-2H33z M42,41.5h13v4H42V41.5z M58,55.5H39v-8h1h17h1V55.5z"/>
	<path d="M30,21.5c0.553,0,1-0.448,1-1v-3c0-0.552-0.447-1-1-1s-1,0.448-1,1v3C29,21.052,29.447,21.5,30,21.5z"/>
</g>
</svg>