<?xml version="1.0" encoding="iso-8859-1"?>
<!-- Uploaded to: SVG Repo, www.svgrepo.com, Generator: SVG Repo Mixer Tools -->
<svg fill="#000000" height="800px" width="800px" version="1.1" id="Capa_1" xmlns="http://www.w3.org/2000/svg" xmlns:xlink="http://www.w3.org/1999/xlink" 
	 viewBox="0 0 58.925 58.925" xml:space="preserve">
<g>
	<path d="M58.784,17.887c0.359-1.71,0.029-3.369-0.954-4.802c-0.07-0.171-0.299-1.028,0.364-4.075
		c0.226-1.042-0.091-2.114-0.846-2.869c-0.826-0.827-2.035-1.124-3.162-0.774c-1.099,0.343-1.908,1.252-2.112,2.374
		c-0.282,1.542-0.321,3.306-0.15,4.807c-0.077-0.037-0.154-0.073-0.232-0.107c-0.917-0.411-1.977-0.326-2.83,0.227
		c-0.876,0.567-1.398,1.526-1.398,2.633c0,1.062,0.563,2.042,1.505,2.62c0.493,0.304,1.133,0.821,1.821,1.468
		c-1.122,1.013-2.601,2.086-4.29,3.13V14.67c0-0.503-0.374-0.928-0.873-0.992c-7.401-0.944-12.55-3.584-15.565-5.633
		c-0.338-0.23-0.785-0.23-1.123,0c-3.016,2.049-8.164,4.689-15.565,5.633c-0.499,0.064-0.873,0.489-0.873,0.992v7.891
		c-1.719-1.057-3.225-2.146-4.361-3.173c0.688-0.647,1.328-1.165,1.821-1.468c0.941-0.579,1.504-1.559,1.504-2.688
		c0-1.039-0.522-1.999-1.397-2.566c-0.854-0.551-1.911-0.637-2.83-0.227c-0.078,0.035-0.155,0.071-0.233,0.108
		c0.172-1.5,0.133-3.265-0.149-4.806C6.648,6.619,5.838,5.71,4.74,5.367C3.614,5.016,2.404,5.315,1.578,6.141
		c-0.755,0.755-1.071,1.828-0.846,2.87c0.663,3.045,0.434,3.903,0.363,4.075c-0.983,1.433-1.313,3.092-0.954,4.802
		c0.396,1.877,1.664,3.815,3.781,5.783h-0.46c-1.654,0-3,1.346-3,3s1.346,3,3,3l9.097-0.003c0.43,8.026,4.188,15.545,10.193,20.263
		c2.022,1.589,4.17,2.835,6.381,3.703c0.117,0.046,0.241,0.069,0.365,0.069s0.248-0.023,0.365-0.069
		c2.211-0.867,4.357-2.113,6.382-3.703c6.004-4.718,9.762-12.236,10.192-20.261h9.024c1.654,0,3-1.346,3-3s-1.346-3-3-3h-0.46
		C57.12,21.703,58.388,19.765,58.784,17.887z M2.462,26.67c0-0.551,0.448-1,1-1h3.224c0.43,0,0.812-0.275,0.948-0.683
		s-0.003-0.857-0.347-1.116c-3.03-2.284-4.776-4.437-5.189-6.396c-0.251-1.196-0.023-2.308,0.678-3.305
		c0.021-0.03,0.04-0.062,0.058-0.094c0.35-0.636,0.648-1.835-0.146-5.491C2.606,8.213,2.719,7.827,2.992,7.555
		C3.297,7.25,3.728,7.146,4.144,7.276c0.188,0.059,0.638,0.257,0.741,0.825c0.43,2.352,0.177,5.117-0.32,6.128
		c-0.206,0.419-0.095,0.924,0.269,1.218c0.361,0.293,0.88,0.297,1.247,0.009c0.597-0.469,1.278-0.881,1.971-1.191
		c0.431-0.192,0.79-0.008,0.926,0.08c0.304,0.197,0.485,0.529,0.485,0.955c0,0.361-0.206,0.704-0.552,0.917
		c-1.088,0.668-2.299,1.841-2.923,2.48c-0.38,0.388-0.38,1.008-0.002,1.396c1.537,1.579,3.931,3.331,6.738,4.934
		c0.688,0.392,1.46,0.618,2.191,0.804c0.484,0.123,0.996,0.332,1.52,0.621c0.325,0.18,0.725,0.164,1.036-0.042
		c0.311-0.206,0.48-0.567,0.441-0.938c-0.104-0.988-0.21-1.759-0.294-2.372c-0.091-0.656-0.156-1.13-0.156-1.432v-2.834
		c0.479,0.161,0.909,0.431,1.203,0.773c1.463,1.704,1.473,5.8,0.994,9.065c-0.042,0.283,0.04,0.57,0.224,0.789
		c1.501,1.786,2.634,3.763,3.226,4.891l-1.811,0.843c-1.397-2.668-4.127-6.729-6.875-7.426c-0.224-0.057-0.7-0.098-0.774-0.101
		H3.462C2.911,27.67,2.462,27.221,2.462,26.67z M35.009,48.358c-1.758,1.381-3.609,2.479-5.511,3.266
		c-1.901-0.788-3.754-1.885-5.51-3.266c-5.45-4.283-8.907-11.078-9.413-18.375c1.781,1.003,4.062,4.187,5.354,6.955
		c0.17,0.363,0.53,0.577,0.907,0.577c0.141,0,0.285-0.03,0.421-0.094l3.626-1.689c0.501-0.233,0.718-0.828,0.484-1.329
		c-0.254-0.546-1.583-3.299-3.669-5.882c0.329-2.517,0.672-7.666-1.517-10.216c-0.868-1.009-2.293-1.636-3.721-1.636
		c-0.553,0-1,0.448-1,1v4c0,0.439,0.073,0.97,0.175,1.705c0.025,0.186,0.054,0.387,0.082,0.605
		c-0.104-0.032-0.208-0.061-0.312-0.087c-0.305-0.078-0.614-0.163-0.909-0.264v-8.088c6.899-1.021,11.875-3.446,15-5.47
		c3.125,2.024,8.101,4.449,15,5.47v8.057c-0.318,0.113-0.65,0.211-0.981,0.295c-0.104,0.026-0.208,0.055-0.312,0.086
		c0.029-0.22,0.057-0.422,0.083-0.609c0.101-0.733,0.174-1.263,0.174-1.701v-4c0-0.552-0.447-1-1-1
		c-1.428,0-2.853,0.627-3.721,1.637c-2.188,2.549-1.845,7.698-1.516,10.215c-2.075,2.57-3.413,5.333-3.67,5.88
		c-0.112,0.241-0.124,0.516-0.033,0.766s0.276,0.453,0.518,0.564l3.626,1.689c0.137,0.064,0.28,0.094,0.421,0.094
		c0.377,0,0.737-0.213,0.907-0.577c1.311-2.808,3.64-6.043,5.429-6.994C43.928,37.256,40.47,44.067,35.009,48.358z M51.291,24.988
		c0.137,0.408,0.519,0.683,0.948,0.683h3.224c0.552,0,1,0.449,1,1s-0.448,1-1,1l-10.262,0.003c0,0-0.474,0.041-0.699,0.098
		c-2.748,0.697-5.478,4.758-6.875,7.426l-1.812-0.844c0.599-1.143,1.722-3.099,3.228-4.89c0.184-0.219,0.266-0.506,0.224-0.789
		c-0.479-3.265-0.469-7.361,0.993-9.064c0.294-0.343,0.724-0.613,1.203-0.774v2.834c0,0.301-0.065,0.773-0.155,1.427
		c-0.085,0.614-0.19,1.387-0.294,2.377c-0.039,0.371,0.131,0.732,0.442,0.938c0.309,0.206,0.71,0.222,1.035,0.042
		c0.532-0.293,1.028-0.497,1.519-0.621c0.731-0.186,1.504-0.412,2.192-0.804c2.808-1.603,5.2-3.355,6.738-4.934
		c0.378-0.389,0.378-1.009-0.002-1.396c-0.624-0.639-1.833-1.81-2.923-2.48c-0.346-0.212-0.553-0.555-0.553-0.984
		c0-0.358,0.182-0.69,0.485-0.887c0.136-0.089,0.494-0.273,0.926-0.08c0.695,0.311,1.376,0.723,1.971,1.19
		c0.364,0.288,0.883,0.285,1.247-0.008c0.362-0.293,0.475-0.799,0.269-1.218c-0.496-1.012-0.749-3.777-0.319-6.129
		c0.104-0.568,0.553-0.766,0.741-0.825c0.417-0.13,0.847-0.025,1.152,0.28c0.272,0.271,0.386,0.657,0.305,1.03
		c-0.796,3.658-0.497,4.856-0.147,5.492c0.018,0.032,0.037,0.063,0.058,0.094c0.701,0.997,0.929,2.109,0.678,3.304
		c-0.413,1.96-2.158,4.112-5.189,6.396C51.293,24.13,51.154,24.58,51.291,24.988z"/>
	<path d="M36.154,17.673c0.529,0.175,1.09-0.115,1.262-0.639c0.172-0.525-0.114-1.09-0.639-1.262
		c-2.475-0.811-4.756-1.81-6.781-2.97c-0.309-0.177-0.686-0.177-0.994,0c-2.045,1.171-4.349,2.178-6.848,2.992
		c-0.525,0.171-0.813,0.735-0.642,1.26c0.138,0.422,0.529,0.691,0.951,0.691c0.103,0,0.207-0.016,0.31-0.05
		c2.43-0.792,4.689-1.759,6.726-2.879C31.514,15.926,33.751,16.886,36.154,17.673z"/>
	<path d="M38.999,38.798c-0.483-0.271-1.092-0.097-1.36,0.385c-1.336,2.392-3.051,4.42-5.099,6.03
		c-0.984,0.773-2.005,1.442-3.041,1.993c-1.036-0.551-2.056-1.22-3.038-1.992c-2.048-1.609-3.765-3.639-5.102-6.032
		c-0.27-0.482-0.876-0.654-1.361-0.385c-0.481,0.27-0.654,0.879-0.385,1.361c1.467,2.625,3.354,4.855,5.611,6.628
		c1.23,0.967,2.519,1.788,3.829,2.439c0.141,0.07,0.293,0.104,0.445,0.104s0.305-0.035,0.445-0.104
		c1.31-0.651,2.599-1.472,3.831-2.44c2.257-1.774,4.145-4.004,5.609-6.627C39.654,39.676,39.481,39.067,38.999,38.798z"/>
</g>
</svg>