<?xml version="1.0" encoding="iso-8859-1"?>
<!-- Uploaded to: SVG Repo, www.svgrepo.com, Generator: SVG Repo Mixer Tools -->
<svg fill="#000000" height="800px" width="800px" version="1.1" id="Capa_1" xmlns="http://www.w3.org/2000/svg" xmlns:xlink="http://www.w3.org/1999/xlink" 
	 viewBox="0 0 60 60" xml:space="preserve">
<g>
	<path d="M34.996,32.445l1.711-1.711c0.391-0.391,0.391-1.023,0-1.414s-1.023-0.391-1.414,0l-1.733,1.733
		c-0.536-2.655-1.705-7.026-3.56-7.026c-1.814,0-3.028,4.314-3.582,7.004l-1.711-1.711c-0.391-0.391-1.023-0.391-1.414,0
		s-0.391,1.023,0,1.414l1.749,1.749c-2.65,0.529-7.044,1.689-7.044,3.545c0,1.842,4.37,3.009,7.038,3.548l-1.743,1.743
		c-0.391,0.391-0.391,1.023,0,1.414c0.195,0.195,0.451,0.293,0.707,0.293s0.512-0.098,0.707-0.293l1.758-1.758
		c0.542,2.659,1.715,7.05,3.535,7.05c1.844,0,3.012-4.378,3.549-7.037l1.744,1.744c0.195,0.195,0.451,0.293,0.707,0.293
		s0.512-0.098,0.707-0.293c0.391-0.391,0.391-1.023,0-1.414l-1.734-1.734c2.665-0.537,7.025-1.703,7.025-3.557
		C41.998,34.211,37.678,32.997,34.996,32.445z M32.842,37.939c-0.506,0.029-0.91,0.433-0.94,0.939
		c-0.105,1.772-1.166,5.422-1.898,6.778c-0.725-1.356-1.779-5.009-1.893-6.79c-0.032-0.504-0.435-0.905-0.939-0.935
		c-1.778-0.105-5.442-1.167-6.803-1.901c1.353-0.723,4.992-1.776,6.767-1.89c0.506-0.033,0.907-0.438,0.935-0.945
		c0.092-1.731,1.188-5.458,1.931-6.813c0.736,1.342,1.807,5.003,1.91,6.776c0.029,0.508,0.437,0.914,0.945,0.94
		c1.724,0.092,5.437,1.185,6.786,1.927C38.296,36.766,34.621,37.837,32.842,37.939z"/>
	<path d="M30,22.027c0.553,0,1-0.448,1-1v-3c0-0.552-0.447-1-1-1s-1,0.448-1,1v3C29,21.579,29.447,22.027,30,22.027z"/>
	<path d="M30,50.027c-0.553,0-1,0.448-1,1v3c0,0.552,0.447,1,1,1s1-0.448,1-1v-3C31,50.475,30.553,50.027,30,50.027z"/>
	<path d="M48,35.027h-3c-0.553,0-1,0.448-1,1s0.447,1,1,1h3c0.553,0,1-0.448,1-1S48.553,35.027,48,35.027z"/>
	<path d="M16,36.027c0-0.552-0.447-1-1-1h-2h-1c-0.553,0-1,0.448-1,1s0.447,1,1,1h1h2C15.553,37.027,16,36.579,16,36.027z"/>
	<path d="M33.714,12.343c0.584-0.654,1.011-1.45,1.188-2.343H40c2.757,0,5-2.243,5-5s-2.243-5-5-5H20c-2.757,0-5,2.243-5,5
		s2.243,5,5,5h5.098c0.177,0.892,0.604,1.689,1.188,2.343C14.825,14.133,6.027,24.071,6.027,36.027C6.027,49.246,16.781,60,30,60
		s23.973-10.754,23.973-23.973C53.973,24.071,45.175,14.133,33.714,12.343z M17,5c0-1.654,1.346-3,3-3h20c1.654,0,3,1.346,3,3
		s-1.346,3-3,3h-5.108C34.417,5.734,32.405,4.027,30,4.027S25.583,5.734,25.108,8H20C18.346,8,17,6.654,17,5z M30,8h-2.807
		C27.614,6.852,28.708,6.027,30,6.027c1.654,0,3,1.346,3,3s-1.346,3-3,3c-1.312,0-2.417-0.852-2.824-2.027H30c0.553,0,1-0.448,1-1
		S30.553,8,30,8z M30,58C17.884,58,8.027,48.143,8.027,36.027S17.884,14.054,30,14.054s21.973,9.857,21.973,21.973S42.116,58,30,58z
		"/>
	<path d="M13.911,27.893l2.599,1.5c0.157,0.091,0.329,0.134,0.499,0.134c0.346,0,0.682-0.179,0.867-0.5
		c0.276-0.479,0.112-1.09-0.366-1.366l-2.599-1.5c-0.478-0.277-1.09-0.113-1.366,0.366C13.269,27.005,13.433,27.617,13.911,27.893z"
		/>
	<path d="M46.089,44.161l-2.599-1.5c-0.478-0.277-1.091-0.113-1.366,0.366c-0.276,0.479-0.112,1.09,0.366,1.366l2.599,1.5
		c0.157,0.091,0.329,0.134,0.499,0.134c0.346,0,0.682-0.179,0.867-0.5C46.731,45.048,46.567,44.437,46.089,44.161z"/>
	<path d="M37,23.903c0.157,0.091,0.329,0.134,0.499,0.134c0.346,0,0.682-0.179,0.867-0.5l1.5-2.598
		c0.276-0.479,0.112-1.09-0.366-1.366c-0.478-0.276-1.09-0.112-1.366,0.366l-1.5,2.598C36.357,23.015,36.521,23.626,37,23.903z"/>
	<path d="M23,48.151c-0.478-0.276-1.09-0.113-1.366,0.366l-1.5,2.598c-0.276,0.479-0.112,1.09,0.366,1.366
		c0.157,0.091,0.329,0.134,0.499,0.134c0.346,0,0.682-0.179,0.867-0.5l0.499-0.865c0,0,0.001-0.001,0.001-0.001l1-1.732
		C23.643,49.039,23.479,48.427,23,48.151z"/>
	<path d="M21.634,23.537c0.186,0.321,0.521,0.5,0.867,0.5c0.17,0,0.342-0.043,0.499-0.134c0.479-0.276,0.643-0.888,0.366-1.366
		l-1.5-2.598c-0.277-0.479-0.89-0.642-1.366-0.366c-0.479,0.276-0.643,0.888-0.366,1.366L21.634,23.537z"/>
	<path d="M38.366,48.517c-0.277-0.479-0.89-0.642-1.366-0.366c-0.479,0.276-0.643,0.888-0.366,1.366l1.5,2.598
		c0.186,0.321,0.521,0.5,0.867,0.5c0.17,0,0.342-0.043,0.499-0.134c0.479-0.276,0.643-0.888,0.366-1.366L38.366,48.517z"/>
	<path d="M42.991,29.527c0.17,0,0.342-0.043,0.499-0.134l2.599-1.5c0.479-0.276,0.643-0.888,0.366-1.366
		c-0.276-0.479-0.89-0.643-1.366-0.366l-2.599,1.5c-0.479,0.276-0.643,0.888-0.366,1.366C42.31,29.348,42.646,29.527,42.991,29.527z
		"/>
	<path d="M16.51,42.661l-1.732,1l-0.866,0.5c-0.479,0.276-0.643,0.888-0.366,1.366c0.186,0.321,0.521,0.5,0.867,0.5
		c0.17,0,0.342-0.043,0.499-0.134l0.866-0.5l1.732-1c0.479-0.276,0.643-0.888,0.366-1.366C17.599,42.548,16.985,42.384,16.51,42.661
		z"/>
</g>
</svg>